<svg xmlns="http://www.w3.org/2000/svg" viewBox="0 0 64 64" width="64" height="64">
  <!-- Fondo circular con gradiente -->
  <defs>
    <linearGradient id="grad1" x1="0%" y1="0%" x2="100%" y2="100%">
      <stop offset="0%" style="stop-color:#3b82f6;stop-opacity:1" />
      <stop offset="100%" style="stop-color:#1d4ed8;stop-opacity:1" />
    </linearGradient>
    <linearGradient id="grad2" x1="0%" y1="0%" x2="100%" y2="100%">
      <stop offset="0%" style="stop-color:#10b981;stop-opacity:1" />
      <stop offset="100%" style="stop-color:#047857;stop-opacity:1" />
    </linearGradient>
  </defs>
  
  <!-- Fondo circular -->
  <circle cx="32" cy="32" r="30" fill="url(#grad1)" stroke="#ffffff" stroke-width="2"/>
  
  <!-- Montañas (representando los Andes/Cusco) -->
  <path d="M8 45 L20 28 L28 35 L38 25 L48 32 L56 45 Z" fill="url(#grad2)" opacity="0.8"/>
  <path d="M12 45 L22 32 L32 38 L42 28 L52 35 L56 45 Z" fill="#047857" opacity="0.6"/>
  
  <!-- Sol -->
  <circle cx="48" cy="18" r="6" fill="#fbbf24"/>
  <path d="M48 8 L48 12 M58 18 L54 18 M54.24 11.76 L51.41 14.59 M54.24 24.24 L51.41 21.41 M48 28 L48 24 M38 18 L42 18 M41.76 11.76 L44.59 14.59 M41.76 24.24 L44.59 21.41" stroke="#fbbf24" stroke-width="1.5" stroke-linecap="round"/>
  
  <!-- Avión (símbolo de viajes) -->
  <path d="M15 20 L18 18 L28 22 L30 20 L26 16 L28 14 L35 18 L37 16 L35 12 L37 10 L42 14 L38 18 L35 22 L28 26 L26 24 L30 20 L18 24 L15 26 Z" fill="#ffffff" opacity="0.9"/>
  
  <!-- Texto "LC" (La Convención) -->
  <text x="32" y="52" font-family="Arial, sans-serif" font-size="8" font-weight="bold" text-anchor="middle" fill="#ffffff">LC</text>
</svg>